<svg width="27" height="25" viewBox="0 0 27 25" fill="none" xmlns="http://www.w3.org/2000/svg">
<path d="M14 20V16M14 16V12M14 16H18M14 16H10" stroke="white" stroke-linecap="round"/>
<path d="M26 21.4444V8.66667C26 7.98889 25.7366 7.33888 25.2678 6.85962C24.7989 6.38036 24.163 6.11111 23.5 6.11111H15.045C14.5806 6.1111 14.1254 5.97887 13.7305 5.72926C13.3355 5.47965 13.0163 5.12251 12.8087 4.69789L11.6913 2.41322C11.4836 1.98841 11.1642 1.63114 10.769 1.38152C10.3738 1.13189 9.91833 0.999779 9.45375 1H3.5C2.83696 1 2.20107 1.26925 1.73223 1.74851C1.26339 2.22776 1 2.87778 1 3.55556V21.4444C1 22.1222 1.26339 22.7722 1.73223 23.2515C2.20107 23.7308 2.83696 24 3.5 24H23.5C24.163 24 24.7989 23.7308 25.2678 23.2515C25.7366 22.7722 26 22.1222 26 21.4444Z" stroke="white" stroke-width="2" stroke-linecap="round" stroke-linejoin="round" id="test"/>
</svg>
