<svg width="25" height="24" viewBox="0 0 25 24" fill="none" xmlns="http://www.w3.org/2000/svg">
<path fill-rule="evenodd" clip-rule="evenodd" d="M12.5 1.09042C6.19271 1.09042 1.08646 6.17938 1.08646 12.4464C1.08646 17.0481 3.83958 21.008 7.80208 22.7892C8.21667 22.976 8.62187 22.9019 8.93854 22.664C9.11367 22.5274 9.25484 22.352 9.35098 22.1516C9.44712 21.9512 9.49563 21.7312 9.49271 21.5089C9.49271 21.1682 9.24094 20.8799 8.90334 20.834L8.07917 20.7221C8.0687 20.7207 8.05828 20.7189 8.04792 20.7169C7.26875 20.5645 6.74271 20.2901 6.35729 19.8946C6.03333 19.5618 5.83542 19.1632 5.66771 18.8251L5.60938 18.7072C5.45437 18.3833 5.28511 18.0665 5.10208 17.7576C4.96146 17.5343 4.85208 17.4195 4.74375 17.3475C4.46875 17.1649 4.20417 16.855 4.20417 16.4679C4.20323 16.3565 4.22704 16.2462 4.27388 16.1452C4.32073 16.0441 4.38942 15.9547 4.475 15.8836C4.63652 15.7555 4.83781 15.6883 5.04375 15.6937C5.275 15.6937 5.49271 15.7646 5.67396 15.846C5.85938 15.9295 6.04375 16.0401 6.21562 16.1549C6.63437 16.4345 7.04687 16.7653 7.39583 17.1733C7.75937 17.5969 8.01667 17.8661 8.40417 17.9214C8.62701 17.9535 8.85291 17.9637 9.05516 17.963C9.1989 17.9625 9.31688 17.8556 9.3546 17.7169C9.40456 17.5331 9.30411 17.3332 9.12067 17.2821C8.93202 17.2296 8.74516 17.1707 8.56042 17.1055C7.87917 16.8634 7.11979 16.4867 6.60937 15.9159C6.04896 15.2877 5.70208 14.7274 5.50833 14.0721C5.31979 13.4335 5.28854 12.7417 5.28854 11.8902C5.28854 11.3232 5.39505 10.795 5.5502 10.3311C5.87071 9.37294 6.05742 8.33942 5.92604 7.33762C5.87988 7.00249 5.88023 6.66258 5.92708 6.32755C5.97917 6.02181 6.10937 5.64617 6.45208 5.41974C6.78229 5.19957 7.16979 5.20896 7.47187 5.2653C7.78542 5.32478 8.11146 5.45521 8.41146 5.60443C9.30287 6.04614 10.3096 6.25754 11.2934 6.10932C11.6844 6.05041 12.0947 6.0085 12.4885 5.9999H12.5115C12.8904 6.00817 13.2773 6.0472 13.6449 6.10247C14.6275 6.25019 15.6322 6.04483 16.5229 5.60443C16.8229 5.45521 17.1479 5.32478 17.4625 5.2653C17.7646 5.20896 18.1521 5.19957 18.4833 5.41869C18.825 5.64617 18.9562 6.02181 19.0073 6.32755C19.0604 6.6458 19.0479 7.00162 19.0073 7.33762C18.8765 8.33956 19.0632 9.37287 19.3839 10.3311C19.5392 10.7951 19.6458 11.3233 19.6458 11.8902C19.6458 12.7417 19.6146 13.4335 19.4271 14.0711C19.2323 14.7285 18.8854 15.2877 18.325 15.9159C17.8146 16.4867 17.0552 16.8634 16.374 17.1055C16.2964 17.1328 16.2184 17.159 16.1402 17.1841C15.6816 17.3312 15.4417 17.8165 15.4417 18.2981V21.5224C15.4417 22.0129 15.6698 22.4313 15.9937 22.6755C16.3083 22.9144 16.7125 22.9885 17.1271 22.8069C21.1271 21.0414 23.9125 17.071 23.9125 12.4454C23.9125 6.17938 18.8083 1.09042 12.5 1.09042ZM9.87083 19.0014C9.61718 19.0376 9.83774 19.006 9.86674 19.0019C9.86701 19.0018 9.86697 19.0014 9.86669 19.0014C9.86668 19.0014 9.86666 19.0014 9.86664 19.0014L9.85833 19.0035L9.82812 19.0077C9.6734 19.0259 9.5181 19.0388 9.3625 19.0463C8.99177 19.0656 8.62005 19.0506 8.25208 19.0014C7.42812 18.8846 6.92708 18.3002 6.60313 17.9204L6.57187 17.8849C6.50994 17.813 6.41306 17.8847 6.456 17.9694C6.49315 18.0426 6.53103 18.1179 6.56979 18.1948L6.58021 18.2157L6.63333 18.3242C6.81562 18.6873 6.93542 18.9294 7.13437 19.1319C7.32812 19.3301 7.63021 19.5221 8.24062 19.6432L10.1094 19.8967C10.2399 19.9144 10.3596 19.979 10.4462 20.0784C10.5328 20.1778 10.5804 20.3053 10.5802 20.4372V21.5089C10.5802 22.3436 10.1896 23.0876 9.59062 23.5384C9.27616 23.7791 8.90206 23.9292 8.50868 23.9726C8.1153 24.016 7.71755 23.951 7.35833 23.7847C3.02292 21.8365 0 17.4988 0 12.4464C0 5.56791 5.60104 0 12.5 0C19.399 0 25 5.56791 25 12.4464C25 17.5249 21.9385 21.8741 17.5656 23.8055C17.2061 23.9687 16.8091 24.031 16.417 23.9856C16.0249 23.9402 15.6524 23.7889 15.3396 23.5478C15.0302 23.3092 14.7803 23.0021 14.6093 22.6505C14.4383 22.2989 14.351 21.9124 14.3542 21.5214V18.2971C14.3542 18.224 14.3031 17.8025 14.0187 17.2359C13.9795 17.1573 13.9597 17.0704 13.9611 16.9826C13.9625 16.8947 13.985 16.8085 14.0267 16.7312C14.0684 16.6539 14.128 16.5879 14.2006 16.5386C14.2732 16.4893 14.3566 16.4582 14.4437 16.4481C14.9778 16.381 15.503 16.2565 16.0104 16.0766C16.6292 15.8575 17.1844 15.557 17.5146 15.1876C18.0052 14.6387 18.25 14.2172 18.3844 13.7612C18.524 13.2885 18.5594 12.7386 18.5594 11.8902C18.5594 10.6996 17.9344 9.69897 17.6469 9.37654C17.5816 9.30367 17.5371 9.21456 17.5181 9.11854C17.499 9.02253 17.5061 8.92315 17.5385 8.83081C17.7237 8.30508 17.8546 7.76173 17.9292 7.20927C17.9625 6.92232 17.9646 6.68232 17.9354 6.50911C17.9231 6.38947 17.8077 6.30726 17.69 6.33174C17.6811 6.33358 17.6723 6.33566 17.6635 6.33798C17.4865 6.37137 17.2604 6.45485 17.0042 6.58215C16.4937 6.83467 15.9625 7.20823 15.6333 7.47535C15.5607 7.53435 15.4741 7.57352 15.382 7.58907C15.2898 7.60461 15.1952 7.59599 15.1073 7.56405C14.2639 7.28769 13.3866 7.12864 12.5 7.09136C11.451 7.1164 10.2406 7.41483 9.82708 7.56405C9.73921 7.59599 9.64459 7.60461 9.55241 7.58907C9.46023 7.57352 9.37363 7.53435 9.30104 7.47535C8.87535 7.13205 8.41607 6.83279 7.93021 6.58215C7.72158 6.4724 7.49957 6.39032 7.26979 6.33798C7.26137 6.33576 7.2529 6.33376 7.2444 6.33198C7.12668 6.30735 7.01124 6.38947 6.99896 6.50911C6.96979 6.68232 6.97187 6.92232 7.00521 7.20927C7.08028 7.76164 7.21116 8.30494 7.39583 8.83081C7.46146 9.01863 7.42083 9.22732 7.2875 9.37654C7 9.69897 6.375 10.6996 6.375 11.8902C6.375 12.7375 6.41042 13.2885 6.55 13.7612C6.68542 14.2172 6.92917 14.6377 7.41875 15.1876C7.75 15.557 8.30417 15.8575 8.92396 16.0766C9.43101 16.2564 9.95591 16.3809 10.4896 16.4481C10.5994 16.4599 10.703 16.5049 10.7866 16.5771C10.8703 16.6494 10.93 16.7454 10.9578 16.8524C10.9856 16.9595 10.9802 17.0725 10.9424 17.1764C10.9045 17.2803 10.8359 17.3702 10.7458 17.4341C10.574 17.5573 10.4604 17.7785 10.3969 18.0341C10.3641 18.1658 10.3445 18.3003 10.3385 18.4359V18.4557C10.3399 18.588 10.2932 18.7163 10.2071 18.8167C10.1211 18.917 10.0016 18.9827 9.87083 19.0014Z" fill="white"/>
</svg>
