<svg width="25" height="25" viewBox="0 0 25 25" fill="none" xmlns="http://www.w3.org/2000/svg">
<path d="M15.2403 9.34421C14.7117 9.34421 14.3204 9.47752 14.014 9.64591C13.9649 9.47128 13.8035 9.34343 13.6133 9.38163H11.287C11.057 9.34343 10.8707 9.52975 10.9416 9.77142V18.3469C10.8707 18.5652 11.057 18.7523 11.287 18.7367H13.6133C13.8433 18.7523 14.0296 18.5652 14.0296 18.3353L14.0288 13.1525C14.028 13.1502 14.0194 12.9023 14.1761 12.7315C14.3017 12.5959 14.5176 12.5265 14.8162 12.5265C15.3136 12.5265 15.535 12.73 15.6176 13.1853V18.3353C15.5358 18.5652 15.7221 18.7523 15.9521 18.7367H18.4039C18.6339 18.7523 18.8202 18.5652 18.7375 18.3353V13.0122C18.8194 10.3054 16.8915 9.34421 15.2403 9.34421ZM17.9868 17.9572H16.3684V13.1853C16.3684 12.2646 15.7735 11.6939 14.817 11.6939C14.2759 11.6939 13.8549 11.8529 13.5649 12.1663C13.1619 12.6029 13.1931 13.1564 13.2796 13.2796V17.9572H11.7033V10.1768H13.197V10.4388C13.1964 10.5168 13.2178 10.5934 13.2588 10.6598C13.2997 10.7262 13.3586 10.7797 13.4287 10.8142C13.4987 10.8486 13.577 10.8626 13.6546 10.8545C13.7322 10.8464 13.806 10.8166 13.8674 10.7685L13.9766 10.6843C14.2923 10.4356 14.619 10.1776 15.2411 10.1776C15.885 10.1776 17.9876 10.3826 17.9876 13.013V17.9572H17.9868ZM8.60205 5.45715C7.72735 5.45715 7.01636 6.16814 7.01636 7.04285C7.01636 7.91755 7.72735 8.62854 8.60205 8.62854C9.47675 8.62854 10.1877 7.91755 10.1877 7.04285C10.1877 6.16814 9.47675 5.45715 8.60205 5.45715ZM8.60205 7.79593C8.18731 7.79593 7.84896 7.45759 7.84896 7.04285C7.84896 6.6281 8.18731 6.28976 8.60205 6.28976C9.01679 6.28976 9.35514 6.6281 9.35514 7.04285C9.35514 7.45759 9.01679 7.79593 8.60205 7.79593ZM9.71531 9.34343H7.40148C7.1715 9.34343 6.98517 9.52975 7.04286 9.77142V18.3469C6.98517 18.5652 7.1715 18.7523 7.40148 18.7367H9.71531C9.94529 18.7523 10.1316 18.5652 10.1316 18.3353V9.75973C10.1316 9.64932 10.0878 9.54343 10.0097 9.46536C9.93161 9.38729 9.82572 9.34343 9.71531 9.34343ZM9.38164 17.9572H7.81778V10.1768H9.38164V17.9572Z" fill="white"/>
<path d="M12.5 0C5.60684 0 0 5.60684 0 12.5C0 19.3932 5.60684 25 12.5 25C19.3932 25 25 19.3932 25 12.5C25 5.60684 19.3932 0 12.5 0ZM12.5 24.1674C6.0668 24.1674 0.832606 18.9332 0.832606 12.5C0.832606 6.0668 6.0668 0.832606 12.5 0.832606C18.9332 0.832606 24.1674 6.0668 24.1674 12.5C24.1674 18.9332 18.9332 24.1674 12.5 24.1674Z" fill="white"/>
</svg>
